<mxfile host="app.diagrams.net" modified="2023-06-25T18:17:22.552Z" agent="Mozilla/5.0 (Windows NT 10.0; Win64; x64) AppleWebKit/537.36 (KHTML, like Gecko) Chrome/114.0.0.0 Safari/537.36" version="21.5.0" etag="clKr98wLZ6F7sMsPLb83" type="github">
  <diagram name="Page-1" id="HD4lBvRNRV2ndiO-L94x">
    <mxGraphModel>
      <root>
        <mxCell id="0" />
        <mxCell id="1" parent="0" />
      </root>
    </mxGraphModel>
  </diagram>
</mxfile>
